# xmcd CD database file
#
# Track frame offsets:
#	150
#	11515
#	44467
#	60235
#	78742
#	111465
#	158935
#	187575
#	238030
#
# Disc length: 3363 seconds
#
# Revision: 2
# Processed by: cddbd v1.4PL0 Copyright (c) Steve Scherf et al.
# Submitted via: CDex 1.50Beta7
#
DISCID=6a0d2109
DTITLE=Star Sounds Orchestra - Phantastische Phänomene
DYEAR=1992
DGENRE=New Age
TTITLE0=Phantastische Phänomene (Pluto)
TTITLE1=On Air (Merkur)
TTITLE2=Magnetenmenschen (Sonne)
TTITLE3=Picassos Garten (Erde-Tag)
TTITLE4=In der Palmblattbibliothek (Jupiter)
TTITLE5=Fantasia Mysterica (Neptun)
TTITLE6=Leben im Jenseits (Pluto)
TTITLE7=Der Heilige Om (Erde-Jahr)
TTITLE8=Die UFOs sind da!
EXTD=Steve Schroyder: Keys and Synths\nJens Zygar: Gongs YEAR: 1992
EXTT0=
EXTT1=
EXTT2=
EXTT3=
EXTT4=
EXTT5=
EXTT6=
EXTT7=
EXTT8=
PLAYORDER=
